STARTFONT 2.1
FONT -elite-laptop-Bold-R-Normal--28-280-72-72-C-140-ISO10646-1
SIZE 28 72 72
FONTBOUNDINGBOX 14 28 0 -6
COMMENT "Generated by fontforge, http://fontforge.sourceforge.net"
STARTPROPERTIES 21
FOUNDRY "xos4"
FAMILY_NAME "Terminus"
WEIGHT_NAME "Bold"
SLANT "R"
SETWIDTH_NAME "Normal"
ADD_STYLE_NAME ""
PIXEL_SIZE 28
POINT_SIZE 280
RESOLUTION_X 72
RESOLUTION_Y 72
SPACING "C"
AVERAGE_WIDTH 140
CHARSET_REGISTRY "ISO10646"
CHARSET_ENCODING "1"
MIN_SPACE 0
COPYRIGHT "Copyright (C) 2006 Dimitar Toshkov Zhekov"
WEIGHT 10
RESOLUTION 99
X_HEIGHT 22
QUAD_WIDTH 14
_XMBDFED_INFO "Edited with xmbdfed 4.7."
ENDPROPERTIES
CHARS 256
STARTCHAR char0
ENCODING 0
SWIDTH 500 0
DWIDTH 14 0
BBX 11 18 1 0
BITMAP
FFE0
FFE0
FFE0
FFE0
FFE0
FFE0
FFE0
FFE0
FFE0
FFE0
FFE0
FFE0
FFE0
FFE0
FFE0
FFE0
FFE0
FFE0
ENDCHAR
STARTCHAR char1
ENCODING 1
SWIDTH 500 0
DWIDTH 14 0
BBX 13 14 0 1
BITMAP
0200
0700
0F80
1FC0
3FE0
7FF0
FFF8
FFF8
7FF0
3FE0
1FC0
0F80
0700
0200
ENDCHAR
STARTCHAR char2
ENCODING 2
SWIDTH 500 0
DWIDTH 14 0
BBX 14 28 0 -6
BITMAP
AAA8
5554
AAA8
5554
AAA8
5554
AAA8
5554
AAA8
5554
AAA8
5554
AAA8
5554
AAA8
5554
AAA8
5554
AAA8
5554
AAA8
5554
AAA8
5554
AAA8
5554
AAA8
5554
ENDCHAR
STARTCHAR char3
ENCODING 3
SWIDTH 500 0
DWIDTH 14 0
BBX 12 18 1 0
BITMAP
C600
C600
C600
FE00
FE00
C600
C600
C600
0000
0000
0FF0
0FF0
0180
0180
0180
0180
0180
0180
ENDCHAR
STARTCHAR char4
ENCODING 4
SWIDTH 500 0
DWIDTH 14 0
BBX 12 18 1 0
BITMAP
FE00
FE00
C000
F800
F800
C000
C000
C000
0000
0000
07F0
07F0
0600
07C0
07C0
0600
0600
0600
ENDCHAR
STARTCHAR char5
ENCODING 5
SWIDTH 500 0
DWIDTH 14 0
BBX 12 18 1 0
BITMAP
7C00
FE00
C600
C000
C000
C600
FE00
7C00
0000
0000
07E0
07F0
0630
0630
07E0
07C0
0660
0630
ENDCHAR
STARTCHAR char6
ENCODING 6
SWIDTH 500 0
DWIDTH 14 0
BBX 12 18 1 0
BITMAP
C000
C000
C000
C000
C000
C000
FE00
FE00
0000
0000
07F0
07F0
0600
07C0
07C0
0600
0600
0600
ENDCHAR
STARTCHAR char7
ENCODING 7
SWIDTH 500 0
DWIDTH 14 0
BBX 7 7 3 13
BITMAP
7C
FE
C6
C6
C6
FE
7C
ENDCHAR
STARTCHAR char8
ENCODING 8
SWIDTH 500 0
DWIDTH 14 0
BBX 12 15 1 0
BITMAP
0600
0600
0600
0600
0600
FFF0
FFF0
0600
0600
0600
0600
0600
0000
FFF0
FFF0
ENDCHAR
STARTCHAR char9
ENCODING 9
SWIDTH 500 0
DWIDTH 14 0
BBX 12 18 1 0
BITMAP
C600
C600
E600
F600
DE00
CE00
C600
C600
0000
0000
0600
0600
0600
0600
0600
0600
07F0
07F0
ENDCHAR
STARTCHAR char10
ENCODING 10
SWIDTH 500 0
DWIDTH 14 0
BBX 12 18 1 0
BITMAP
C600
C600
C600
C600
C600
6C00
3800
1000
0000
0000
0FF0
0FF0
0180
0180
0180
0180
0180
0180
ENDCHAR
STARTCHAR char11
ENCODING 11
SWIDTH 500 0
DWIDTH 14 0
BBX 8 15 0 7
BITMAP
03
03
03
03
03
03
03
03
07
0E
1C
38
70
E0
C0
ENDCHAR
STARTCHAR char12
ENCODING 12
SWIDTH 500 0
DWIDTH 14 0
BBX 8 15 0 -6
BITMAP
C0
E0
70
38
1C
0E
07
03
03
03
03
03
03
03
03
ENDCHAR
STARTCHAR char13
ENCODING 13
SWIDTH 500 0
DWIDTH 14 0
BBX 8 15 6 -6
BITMAP
03
07
0E
1C
38
70
E0
C0
C0
C0
C0
C0
C0
C0
C0
ENDCHAR
STARTCHAR char14
ENCODING 14
SWIDTH 500 0
DWIDTH 14 0
BBX 8 15 6 7
BITMAP
C0
C0
C0
C0
C0
C0
C0
C0
E0
70
38
1C
0E
07
03
ENDCHAR
STARTCHAR char15
ENCODING 15
SWIDTH 500 0
DWIDTH 14 0
BBX 14 28 0 -6
BITMAP
0300
0300
0300
0300
0300
0300
0300
0300
0300
0300
0300
0300
0300
FFFC
FFFC
0300
0300
0300
0300
0300
0300
0300
0300
0300
0300
0300
0300
0300
ENDCHAR
STARTCHAR char16
ENCODING 16
SWIDTH 500 0
DWIDTH 14 0
BBX 14 2 0 20
BITMAP
FFFC
FFFC
ENDCHAR
STARTCHAR char17
ENCODING 17
SWIDTH 500 0
DWIDTH 14 0
BBX 14 2 0 13
BITMAP
FFFC
FFFC
ENDCHAR
STARTCHAR char18
ENCODING 18
SWIDTH 500 0
DWIDTH 14 0
BBX 14 2 0 7
BITMAP
FFFC
FFFC
ENDCHAR
STARTCHAR char19
ENCODING 19
SWIDTH 500 0
DWIDTH 14 0
BBX 14 2 0 1
BITMAP
FFFC
FFFC
ENDCHAR
STARTCHAR char20
ENCODING 20
SWIDTH 500 0
DWIDTH 14 0
BBX 14 2 0 -6
BITMAP
FFFC
FFFC
ENDCHAR
STARTCHAR char21
ENCODING 21
SWIDTH 500 0
DWIDTH 14 0
BBX 8 28 6 -6
BITMAP
C0
C0
C0
C0
C0
C0
C0
C0
C0
C0
C0
C0
C0
FF
FF
C0
C0
C0
C0
C0
C0
C0
C0
C0
C0
C0
C0
C0
ENDCHAR
STARTCHAR char22
ENCODING 22
SWIDTH 500 0
DWIDTH 14 0
BBX 8 28 0 -6
BITMAP
03
03
03
03
03
03
03
03
03
03
03
03
03
FF
FF
03
03
03
03
03
03
03
03
03
03
03
03
03
ENDCHAR
STARTCHAR char23
ENCODING 23
SWIDTH 500 0
DWIDTH 14 0
BBX 14 15 0 7
BITMAP
0300
0300
0300
0300
0300
0300
0300
0300
0300
0300
0300
0300
0300
FFFC
FFFC
ENDCHAR
STARTCHAR char24
ENCODING 24
SWIDTH 500 0
DWIDTH 14 0
BBX 14 15 0 -6
BITMAP
FFFC
FFFC
0300
0300
0300
0300
0300
0300
0300
0300
0300
0300
0300
0300
0300
ENDCHAR
STARTCHAR char25
ENCODING 25
SWIDTH 500 0
DWIDTH 14 0
BBX 2 28 6 -6
BITMAP
C0
C0
C0
C0
C0
C0
C0
C0
C0
C0
C0
C0
C0
C0
C0
C0
C0
C0
C0
C0
C0
C0
C0
C0
C0
C0
C0
C0
ENDCHAR
STARTCHAR char26
ENCODING 26
SWIDTH 500 0
DWIDTH 14 0
BBX 11 18 1 0
BITMAP
00E0
01C0
0380
0700
0E00
1C00
3800
7000
3800
1C00
0E00
0700
0380
01C0
00E0
0000
FFE0
FFE0
ENDCHAR
STARTCHAR char27
ENCODING 27
SWIDTH 500 0
DWIDTH 14 0
BBX 11 18 1 0
BITMAP
E000
7000
3800
1C00
0E00
0700
0380
01C0
0380
0700
0E00
1C00
3800
7000
E000
0000
FFE0
FFE0
ENDCHAR
STARTCHAR char28
ENCODING 28
SWIDTH 500 0
DWIDTH 14 0
BBX 12 13 1 0
BITMAP
FFF0
FFF0
6060
6060
6060
6060
6060
6060
6060
6060
6060
6060
6060
ENDCHAR
STARTCHAR char29
ENCODING 29
SWIDTH 500 0
DWIDTH 14 0
BBX 12 11 1 3
BITMAP
0070
00E0
FFF0
FFF0
0380
0700
0E00
FFF0
FFF0
7000
E000
ENDCHAR
STARTCHAR char30
ENCODING 30
SWIDTH 500 0
DWIDTH 14 0
BBX 10 18 2 0
BITMAP
1E00
3F00
6180
6180
6000
6000
6000
6000
FE00
FE00
6000
6000
6000
6000
60C0
60C0
FFC0
FFC0
ENDCHAR
STARTCHAR char31
ENCODING 31
SWIDTH 500 0
DWIDTH 14 0
BBX 2 4 6 6
BITMAP
C0
C0
C0
C0
ENDCHAR
STARTCHAR char32
ENCODING 32
SWIDTH 500 0
DWIDTH 14 0
BBX 1 1 13 -6
BITMAP
00
ENDCHAR
STARTCHAR char33
ENCODING 33
SWIDTH 500 0
DWIDTH 14 0
BBX 2 18 6 0
BITMAP
C0
C0
C0
C0
C0
C0
C0
C0
C0
C0
C0
C0
00
00
C0
C0
C0
C0
ENDCHAR
STARTCHAR char34
ENCODING 34
SWIDTH 500 0
DWIDTH 14 0
BBX 7 6 3 14
BITMAP
C6
C6
C6
C6
C6
C6
ENDCHAR
STARTCHAR char35
ENCODING 35
SWIDTH 500 0
DWIDTH 14 0
BBX 11 18 1 0
BITMAP
3180
3180
3180
3180
FFE0
FFE0
3180
3180
3180
3180
3180
3180
FFE0
FFE0
3180
3180
3180
3180
ENDCHAR
STARTCHAR char36
ENCODING 36
SWIDTH 500 0
DWIDTH 14 0
BBX 10 20 2 -1
BITMAP
0C00
0C00
3F00
7F80
CCC0
CCC0
CC00
CC00
CC00
7F00
3F80
0CC0
0CC0
0CC0
CCC0
CCC0
7F80
3F00
0C00
0C00
ENDCHAR
STARTCHAR char37
ENCODING 37
SWIDTH 500 0
DWIDTH 14 0
BBX 12 18 1 0
BITMAP
7860
FC60
CCC0
FCC0
7980
0180
0300
0300
0600
0600
0C00
0C00
1800
19E0
33F0
3330
63F0
61E0
ENDCHAR
STARTCHAR char38
ENCODING 38
SWIDTH 500 0
DWIDTH 14 0
BBX 12 18 1 0
BITMAP
1E00
3F00
6180
6180
6180
7380
3F00
1E00
1C00
3E30
7770
E3E0
C1C0
C1C0
C1C0
E3E0
7F70
3E30
ENDCHAR
STARTCHAR char39
ENCODING 39
SWIDTH 500 0
DWIDTH 14 0
BBX 2 6 6 14
BITMAP
C0
C0
C0
C0
C0
C0
ENDCHAR
STARTCHAR char40
ENCODING 40
SWIDTH 500 0
DWIDTH 14 0
BBX 5 18 4 0
BITMAP
18
30
60
60
C0
C0
C0
C0
C0
C0
C0
C0
C0
C0
60
60
30
18
ENDCHAR
STARTCHAR char41
ENCODING 41
SWIDTH 500 0
DWIDTH 14 0
BBX 5 18 4 0
BITMAP
C0
60
30
30
18
18
18
18
18
18
18
18
18
18
30
30
60
C0
ENDCHAR
STARTCHAR char42
ENCODING 42
SWIDTH 500 0
DWIDTH 14 0
BBX 11 10 1 4
BITMAP
71C0
3B80
1F00
0E00
FFE0
FFE0
0E00
1F00
3B80
71C0
ENDCHAR
STARTCHAR char43
ENCODING 43
SWIDTH 500 0
DWIDTH 14 0
BBX 12 12 1 3
BITMAP
0600
0600
0600
0600
0600
FFF0
FFF0
0600
0600
0600
0600
0600
ENDCHAR
STARTCHAR char44
ENCODING 44
SWIDTH 500 0
DWIDTH 14 0
BBX 4 6 4 -2
BITMAP
30
30
30
30
60
C0
ENDCHAR
STARTCHAR char45
ENCODING 45
SWIDTH 500 0
DWIDTH 14 0
BBX 11 2 1 8
BITMAP
FFE0
FFE0
ENDCHAR
STARTCHAR char46
ENCODING 46
SWIDTH 500 0
DWIDTH 14 0
BBX 2 4 6 0
BITMAP
C0
C0
C0
C0
ENDCHAR
STARTCHAR char47
ENCODING 47
SWIDTH 500 0
DWIDTH 14 0
BBX 10 18 2 0
BITMAP
00C0
00C0
0180
0180
0300
0300
0600
0600
0C00
0C00
1800
1800
3000
3000
6000
6000
C000
C000
ENDCHAR
STARTCHAR char48
ENCODING 48
SWIDTH 500 0
DWIDTH 14 0
BBX 11 18 1 0
BITMAP
7FC0
FFE0
C060
C060
E060
F060
F860
DC60
CE60
C760
C3E0
C1E0
C0E0
C060
C060
C060
FFE0
7FC0
ENDCHAR
STARTCHAR char49
ENCODING 49
SWIDTH 500 0
DWIDTH 14 0
BBX 8 18 3 0
BITMAP
78
78
18
18
18
18
18
18
18
18
18
18
18
18
18
18
FF
FF
ENDCHAR
STARTCHAR char50
ENCODING 50
SWIDTH 500 0
DWIDTH 14 0
BBX 11 18 1 0
BITMAP
FFC0
FFE0
0060
0060
0060
0060
0060
0060
7FE0
FFE0
C000
C000
C000
C000
C000
C000
FFE0
7FE0
ENDCHAR
STARTCHAR char51
ENCODING 51
SWIDTH 500 0
DWIDTH 14 0
BBX 11 18 1 0
BITMAP
FFC0
FFE0
0060
0060
0060
0060
0060
0060
1FE0
1FE0
0060
0060
0060
0060
0060
0060
FFE0
FFC0
ENDCHAR
STARTCHAR char52
ENCODING 52
SWIDTH 500 0
DWIDTH 14 0
BBX 12 18 1 0
BITMAP
C000
C000
C000
C060
C060
C060
C060
C060
C060
C060
FFF0
7FF0
0060
0060
0060
0060
0060
0060
ENDCHAR
STARTCHAR char53
ENCODING 53
SWIDTH 500 0
DWIDTH 14 0
BBX 11 18 1 0
BITMAP
FFE0
FFE0
C000
C000
C000
C000
C000
C000
FFC0
7FE0
0060
0060
0060
0060
0060
0060
FFE0
FFC0
ENDCHAR
STARTCHAR char54
ENCODING 54
SWIDTH 500 0
DWIDTH 14 0
BBX 11 18 1 0
BITMAP
7FE0
FFE0
C000
C000
C000
C000
C000
C000
FFC0
FFE0
C060
C060
C060
C060
C060
C060
FFE0
7FC0
ENDCHAR
STARTCHAR char55
ENCODING 55
SWIDTH 500 0
DWIDTH 14 0
BBX 11 18 2 0
BITMAP
FF80
FFC0
00C0
00C0
00C0
00C0
00C0
03E0
03E0
00C0
00C0
00C0
00C0
00C0
00C0
00C0
00C0
00C0
ENDCHAR
STARTCHAR char56
ENCODING 56
SWIDTH 500 0
DWIDTH 14 0
BBX 11 18 1 0
BITMAP
7FC0
FFE0
C060
C060
C060
C060
C060
C060
7FC0
7FC0
C060
C060
C060
C060
C060
C060
FFE0
7FC0
ENDCHAR
STARTCHAR char57
ENCODING 57
SWIDTH 500 0
DWIDTH 14 0
BBX 11 18 1 0
BITMAP
7FC0
FFE0
C060
C060
C060
C060
C060
C060
FFE0
7FE0
0060
0060
0060
0060
0060
0060
7FE0
7FC0
ENDCHAR
STARTCHAR char58
ENCODING 58
SWIDTH 500 0
DWIDTH 14 0
BBX 2 14 6 0
BITMAP
C0
C0
C0
C0
00
00
00
00
00
00
C0
C0
C0
C0
ENDCHAR
STARTCHAR char59
ENCODING 59
SWIDTH 500 0
DWIDTH 14 0
BBX 4 16 4 -2
BITMAP
30
30
30
30
00
00
00
00
00
00
30
30
30
30
60
C0
ENDCHAR
STARTCHAR char60
ENCODING 60
SWIDTH 500 0
DWIDTH 14 0
BBX 11 17 1 0
BITMAP
00E0
01C0
0380
0700
0E00
1C00
3800
7000
E000
7000
3800
1C00
0E00
0700
0380
01C0
00E0
ENDCHAR
STARTCHAR char61
ENCODING 61
SWIDTH 500 0
DWIDTH 14 0
BBX 12 7 1 5
BITMAP
FFF0
FFF0
0000
0000
0000
FFF0
FFF0
ENDCHAR
STARTCHAR char62
ENCODING 62
SWIDTH 500 0
DWIDTH 14 0
BBX 11 17 1 0
BITMAP
E000
7000
3800
1C00
0E00
0700
0380
01C0
00E0
01C0
0380
0700
0E00
1C00
3800
7000
E000
ENDCHAR
STARTCHAR char63
ENCODING 63
SWIDTH 500 0
DWIDTH 14 0
BBX 11 18 1 0
BITMAP
3F80
7FC0
C060
C060
C060
C060
00C0
0180
0300
0600
0600
0600
0000
0000
0600
0600
0600
0600
ENDCHAR
STARTCHAR char64
ENCODING 64
SWIDTH 500 0
DWIDTH 14 0
BBX 12 18 1 0
BITMAP
7FE0
FFF0
C030
C030
C7F0
CFF0
CC30
CC30
CC30
CC30
CC30
CC30
CFF0
C7E0
C000
C000
FFF0
7FF0
ENDCHAR
STARTCHAR char65
ENCODING 65
SWIDTH 500 0
DWIDTH 14 0
BBX 11 18 1 0
BITMAP
7FC0
FFE0
C060
C060
C060
C060
C060
C060
C060
FFE0
FFE0
C060
C060
C060
C060
C060
C060
C060
ENDCHAR
STARTCHAR char66
ENCODING 66
SWIDTH 500 0
DWIDTH 14 0
BBX 11 18 1 0
BITMAP
FFC0
FFE0
C060
C060
C060
C060
C0E0
FFC0
FFC0
C0E0
C060
C060
C060
C060
C060
C060
FFE0
FFC0
ENDCHAR
STARTCHAR char67
ENCODING 67
SWIDTH 500 0
DWIDTH 14 0
BBX 11 18 1 0
BITMAP
7FE0
FFE0
C000
C000
C000
C000
C000
C000
C000
C000
C000
C000
C000
C000
C000
C000
FFE0
7FE0
ENDCHAR
STARTCHAR char68
ENCODING 68
SWIDTH 500 0
DWIDTH 14 0
BBX 12 18 1 0
BITMAP
FFC0
FFE0
6070
6030
6030
6030
6030
6030
6030
6030
6030
6030
6030
6030
6030
6070
FFE0
FFC0
ENDCHAR
STARTCHAR char69
ENCODING 69
SWIDTH 500 0
DWIDTH 14 0
BBX 11 18 1 0
BITMAP
7FE0
FFE0
C000
C000
C000
C000
C000
C000
FF00
FF00
C000
C000
C000
C000
C000
C000
FFE0
7FE0
ENDCHAR
STARTCHAR char70
ENCODING 70
SWIDTH 500 0
DWIDTH 14 0
BBX 11 18 1 0
BITMAP
7FE0
FFE0
C000
C000
C000
C000
C000
C000
FF00
FF00
C000
C000
C000
C000
C000
C000
C000
C000
ENDCHAR
STARTCHAR char71
ENCODING 71
SWIDTH 500 0
DWIDTH 14 0
BBX 11 18 1 0
BITMAP
7FC0
FFE0
C060
C060
C060
C000
C000
C000
C7E0
C7E0
C060
C060
C060
C060
C060
C060
FFE0
7FC0
ENDCHAR
STARTCHAR char72
ENCODING 72
SWIDTH 500 0
DWIDTH 14 0
BBX 11 18 1 0
BITMAP
C060
C060
C060
C060
C060
C060
C060
C060
FFE0
FFE0
C060
C060
C060
C060
C060
C060
C060
C060
ENDCHAR
STARTCHAR char73
ENCODING 73
SWIDTH 500 0
DWIDTH 14 0
BBX 6 18 4 0
BITMAP
FC
FC
30
30
30
30
30
30
30
30
30
30
30
30
30
30
FC
FC
ENDCHAR
STARTCHAR char74
ENCODING 74
SWIDTH 500 0
DWIDTH 14 0
BBX 11 18 1 0
BITMAP
0060
0060
0060
0060
0060
0060
0060
0060
0060
0060
0060
0060
C060
C060
C060
C060
FFE0
7FC0
ENDCHAR
STARTCHAR char75
ENCODING 75
SWIDTH 500 0
DWIDTH 14 0
BBX 11 18 1 0
BITMAP
C060
C0E0
C1C0
C380
C700
CE00
DC00
F800
F000
F000
F800
DC00
CE00
C700
C380
C1C0
C0E0
C060
ENDCHAR
STARTCHAR char76
ENCODING 76
SWIDTH 500 0
DWIDTH 14 0
BBX 11 18 1 0
BITMAP
C000
C000
C000
C000
C000
C000
C000
C000
C000
C000
C000
C000
C000
C000
C000
C000
FFE0
7FE0
ENDCHAR
STARTCHAR char77
ENCODING 77
SWIDTH 500 0
DWIDTH 14 0
BBX 12 18 1 0
BITMAP
8010
C030
E070
F0F0
F9F0
DFB0
CF30
C630
C030
C030
C030
C030
C030
C030
C030
C030
C030
C030
ENDCHAR
STARTCHAR char78
ENCODING 78
SWIDTH 500 0
DWIDTH 14 0
BBX 11 18 1 0
BITMAP
C060
C060
C060
C060
E060
F060
F860
DC60
CE60
C760
C3E0
C1E0
C0E0
C060
C060
C060
C060
C060
ENDCHAR
STARTCHAR char79
ENCODING 79
SWIDTH 500 0
DWIDTH 14 0
BBX 11 18 1 0
BITMAP
7FC0
FFE0
C060
C060
C060
C060
C060
C060
C060
C060
C060
C060
C060
C060
C060
C060
FFE0
7FC0
ENDCHAR
STARTCHAR char80
ENCODING 80
SWIDTH 500 0
DWIDTH 14 0
BBX 11 18 1 0
BITMAP
7FC0
FFE0
C060
C060
C060
C060
C060
C060
FFE0
FFC0
C000
C000
C000
C000
C000
C000
C000
C000
ENDCHAR
STARTCHAR char81
ENCODING 81
SWIDTH 500 0
DWIDTH 14 0
BBX 12 21 1 -3
BITMAP
7FC0
FFE0
C060
C060
C060
C060
C060
C060
C060
C060
C060
C060
C060
C060
C060
C060
FFE0
7FF0
0030
0030
0020
ENDCHAR
STARTCHAR char82
ENCODING 82
SWIDTH 500 0
DWIDTH 14 0
BBX 11 18 1 0
BITMAP
7FC0
FFE0
C060
C060
C060
C060
C060
C060
FFC0
FF80
C1C0
C0E0
C060
C060
C060
C060
C060
C060
ENDCHAR
STARTCHAR char83
ENCODING 83
SWIDTH 500 0
DWIDTH 14 0
BBX 11 18 1 0
BITMAP
7FC0
FFE0
C060
C060
C000
C000
C000
C000
FFC0
7FE0
0060
0060
0060
0060
C060
C060
FFE0
7FC0
ENDCHAR
STARTCHAR char84
ENCODING 84
SWIDTH 500 0
DWIDTH 14 0
BBX 12 18 1 0
BITMAP
FFF0
FFF0
0600
0600
0600
0600
0600
0600
0600
0600
0600
0600
0600
0600
0600
0600
0600
0600
ENDCHAR
STARTCHAR char85
ENCODING 85
SWIDTH 500 0
DWIDTH 14 0
BBX 11 18 1 0
BITMAP
C060
C060
C060
C060
C060
C060
C060
C060
C060
C060
C060
C060
C060
C060
C060
C060
FFE0
7FE0
ENDCHAR
STARTCHAR char86
ENCODING 86
SWIDTH 500 0
DWIDTH 14 0
BBX 10 18 2 0
BITMAP
C0C0
C0C0
C0C0
C0C0
C0C0
C0C0
C0C0
C0C0
C0C0
C1C0
C380
C700
CE00
DC00
F800
F000
E000
C000
ENDCHAR
STARTCHAR char87
ENCODING 87
SWIDTH 500 0
DWIDTH 14 0
BBX 12 18 1 0
BITMAP
C030
C030
C030
C030
C030
C030
C030
C030
C030
C030
C630
CF30
DFB0
F9F0
F0F0
E070
C030
8010
ENDCHAR
STARTCHAR char88
ENCODING 88
SWIDTH 500 0
DWIDTH 14 0
BBX 11 18 1 0
BITMAP
C060
C060
60C0
60C0
3180
3180
1B00
1B00
0E00
0E00
1B00
1B00
3180
3180
60C0
60C0
C060
C060
ENDCHAR
STARTCHAR char89
ENCODING 89
SWIDTH 500 0
DWIDTH 14 0
BBX 11 18 1 0
BITMAP
C060
C060
C060
C060
C060
C060
C060
C060
FFE0
7FE0
0060
0060
0060
0060
0060
0060
FFE0
FFC0
ENDCHAR
STARTCHAR char90
ENCODING 90
SWIDTH 500 0
DWIDTH 14 0
BBX 11 18 1 0
BITMAP
FFE0
FFE0
0060
0060
00E0
01C0
0380
0700
0E00
1C00
3800
7000
E000
C000
C000
C000
FFE0
FFE0
ENDCHAR
STARTCHAR char91
ENCODING 91
SWIDTH 500 0
DWIDTH 14 0
BBX 6 18 4 0
BITMAP
FC
FC
C0
C0
C0
C0
C0
C0
C0
C0
C0
C0
C0
C0
C0
C0
FC
FC
ENDCHAR
STARTCHAR char92
ENCODING 92
SWIDTH 500 0
DWIDTH 14 0
BBX 10 18 2 0
BITMAP
C000
C000
6000
6000
3000
3000
1800
1800
0C00
0C00
0600
0600
0300
0300
0180
0180
00C0
00C0
ENDCHAR
STARTCHAR char93
ENCODING 93
SWIDTH 500 0
DWIDTH 14 0
BBX 6 18 4 0
BITMAP
FC
FC
0C
0C
0C
0C
0C
0C
0C
0C
0C
0C
0C
0C
0C
0C
FC
FC
ENDCHAR
STARTCHAR char94
ENCODING 94
SWIDTH 500 0
DWIDTH 14 0
BBX 10 5 2 15
BITMAP
0C00
1E00
3F00
7380
E1C0
ENDCHAR
STARTCHAR char95
ENCODING 95
SWIDTH 500 0
DWIDTH 14 0
BBX 11 2 1 -3
BITMAP
FFE0
FFE0
ENDCHAR
STARTCHAR char96
ENCODING 96
SWIDTH 500 0
DWIDTH 14 0
BBX 5 3 3 19
BITMAP
E0
70
38
ENDCHAR
STARTCHAR char97
ENCODING 97
SWIDTH 500 0
DWIDTH 14 0
BBX 11 13 1 0
BITMAP
FFC0
FFE0
0060
0060
7FE0
FFE0
C060
C060
C060
C060
C060
FFE0
7FC0
ENDCHAR
STARTCHAR char98
ENCODING 98
SWIDTH 500 0
DWIDTH 14 0
BBX 11 18 1 0
BITMAP
C000
C000
C000
C000
C000
C000
FFC0
FFE0
C060
C060
C060
C060
C060
C060
C060
C060
FFE0
FFC0
ENDCHAR
STARTCHAR char99
ENCODING 99
SWIDTH 500 0
DWIDTH 14 0
BBX 10 13 1 0
BITMAP
7FC0
FFC0
C000
C000
C000
C000
C000
C000
C000
C000
C000
FFC0
7FC0
ENDCHAR
STARTCHAR char100
ENCODING 100
SWIDTH 500 0
DWIDTH 14 0
BBX 11 18 1 0
BITMAP
0060
0060
0060
0060
0060
7FE0
FFE0
C060
C060
C060
C060
C060
C060
C060
C060
C060
FFE0
7FE0
ENDCHAR
STARTCHAR char101
ENCODING 101
SWIDTH 500 0
DWIDTH 14 0
BBX 11 13 1 0
BITMAP
7FC0
FFE0
C060
C060
C060
C060
FFE0
FFE0
C000
C000
C000
FFE0
7FE0
ENDCHAR
STARTCHAR char102
ENCODING 102
SWIDTH 500 0
DWIDTH 14 0
BBX 9 18 3 0
BITMAP
1F80
3F80
3000
3000
3000
FC00
FC00
3000
3000
3000
3000
3000
3000
3000
3000
3000
3000
3000
ENDCHAR
STARTCHAR char103
ENCODING 103
SWIDTH 500 0
DWIDTH 14 0
BBX 11 18 1 -5
BITMAP
7FC0
FFE0
C060
C060
C060
C060
C060
C060
C060
C060
C060
FFE0
7FE0
0060
0060
0060
FFE0
FFC0
ENDCHAR
STARTCHAR char104
ENCODING 104
SWIDTH 500 0
DWIDTH 14 0
BBX 11 18 1 0
BITMAP
C000
C000
C000
C000
C000
FFC0
FFE0
C060
C060
C060
C060
C060
C060
C060
C060
C060
C060
C060
ENDCHAR
STARTCHAR char105
ENCODING 105
SWIDTH 500 0
DWIDTH 14 0
BBX 2 18 6 0
BITMAP
C0
C0
C0
00
00
C0
C0
C0
C0
C0
C0
C0
C0
C0
C0
C0
C0
C0
ENDCHAR
STARTCHAR char106
ENCODING 106
SWIDTH 500 0
DWIDTH 14 0
BBX 8 23 3 -5
BITMAP
03
03
03
00
00
03
03
03
03
03
03
03
03
03
03
03
03
03
03
03
03
FF
FE
ENDCHAR
STARTCHAR char107
ENCODING 107
SWIDTH 500 0
DWIDTH 14 0
BBX 10 13 2 0
BITMAP
C1C0
C380
C700
CE00
DC00
F800
F000
F800
DC00
CE00
C700
C380
C1C0
ENDCHAR
STARTCHAR char108
ENCODING 108
SWIDTH 500 0
DWIDTH 14 0
BBX 9 13 3 0
BITMAP
C000
C000
C000
C000
C000
C000
C000
C000
C000
C000
C000
FF80
7F80
ENDCHAR
STARTCHAR char109
ENCODING 109
SWIDTH 500 0
DWIDTH 14 0
BBX 12 13 1 0
BITMAP
8010
C030
E070
F0F0
F9F0
DFB0
CF30
C630
C030
C030
C030
C030
C030
ENDCHAR
STARTCHAR char110
ENCODING 110
SWIDTH 500 0
DWIDTH 14 0
BBX 11 13 1 0
BITMAP
FF80
FFC0
C060
C060
C060
C060
C060
C060
C060
C060
C060
C060
C060
ENDCHAR
STARTCHAR char111
ENCODING 111
SWIDTH 500 0
DWIDTH 14 0
BBX 11 13 1 0
BITMAP
7FC0
FFE0
C060
C060
C060
C060
C060
C060
C060
C060
C060
FFE0
7FC0
ENDCHAR
STARTCHAR char112
ENCODING 112
SWIDTH 500 0
DWIDTH 14 0
BBX 11 13 1 0
BITMAP
FFC0
FFE0
C060
C060
C060
C060
FFE0
FFC0
C000
C000
C000
C000
C000
ENDCHAR
STARTCHAR char113
ENCODING 113
SWIDTH 500 0
DWIDTH 14 0
BBX 12 16 1 -3
BITMAP
7FC0
FFE0
C060
C060
C060
C060
C060
C060
C060
C060
C060
FFE0
7FF0
0030
0030
0020
ENDCHAR
STARTCHAR char114
ENCODING 114
SWIDTH 500 0
DWIDTH 14 0
BBX 11 13 1 0
BITMAP
CFE0
DFE0
F800
F000
E000
C000
C000
C000
C000
C000
C000
C000
C000
ENDCHAR
STARTCHAR char115
ENCODING 115
SWIDTH 500 0
DWIDTH 14 0
BBX 11 13 1 0
BITMAP
7FC0
FFE0
C060
C000
C000
FFC0
7FE0
0060
0060
0060
C060
FFE0
7FC0
ENDCHAR
STARTCHAR char116
ENCODING 116
SWIDTH 500 0
DWIDTH 14 0
BBX 10 13 2 0
BITMAP
FFC0
FFC0
0C00
0C00
0C00
0C00
0C00
0C00
0C00
0C00
0C00
0C00
0C00
ENDCHAR
STARTCHAR char117
ENCODING 117
SWIDTH 500 0
DWIDTH 14 0
BBX 11 13 1 0
BITMAP
C060
C060
C060
C060
C060
C060
C060
C060
C060
C060
C060
7FE0
3FE0
ENDCHAR
STARTCHAR char118
ENCODING 118
SWIDTH 500 0
DWIDTH 14 0
BBX 10 13 2 0
BITMAP
C0C0
C0C0
C0C0
C0C0
C1C0
C380
C700
CE00
DC00
F800
F000
E000
C000
ENDCHAR
STARTCHAR char119
ENCODING 119
SWIDTH 500 0
DWIDTH 14 0
BBX 12 13 1 0
BITMAP
C030
C030
C030
C030
C030
C630
CF30
DFB0
F9F0
F0F0
E070
C030
8010
ENDCHAR
STARTCHAR char120
ENCODING 120
SWIDTH 500 0
DWIDTH 14 0
BBX 11 13 1 0
BITMAP
C060
C060
E0E0
71C0
3B80
1F00
0E00
1F00
3B80
71C0
E0E0
C060
C060
ENDCHAR
STARTCHAR char121
ENCODING 121
SWIDTH 500 0
DWIDTH 14 0
BBX 11 13 1 0
BITMAP
C060
C060
C060
C060
C060
C060
FFE0
7FE0
0060
0060
0060
7FE0
7FC0
ENDCHAR
STARTCHAR char122
ENCODING 122
SWIDTH 500 0
DWIDTH 14 0
BBX 11 13 1 0
BITMAP
FFE0
FFE0
00E0
01C0
0380
0700
0E00
1C00
3800
7000
E000
FFE0
FFE0
ENDCHAR
STARTCHAR char123
ENCODING 123
SWIDTH 500 0
DWIDTH 14 0
BBX 7 18 3 0
BITMAP
0E
1E
30
30
30
30
30
30
E0
E0
30
30
30
30
30
30
1E
0E
ENDCHAR
STARTCHAR char124
ENCODING 124
SWIDTH 500 0
DWIDTH 14 0
BBX 2 18 6 0
BITMAP
C0
C0
C0
C0
C0
C0
C0
C0
C0
C0
C0
C0
C0
C0
C0
C0
C0
C0
ENDCHAR
STARTCHAR char125
ENCODING 125
SWIDTH 500 0
DWIDTH 14 0
BBX 7 18 3 0
BITMAP
E0
F0
18
18
18
18
18
18
0E
0E
18
18
18
18
18
18
F0
E0
ENDCHAR
STARTCHAR char126
ENCODING 126
SWIDTH 500 0
DWIDTH 14 0
BBX 11 5 1 15
BITMAP
7860
FC60
C660
C7E0
C3C0
ENDCHAR
STARTCHAR char127
ENCODING 127
SWIDTH 500 0
DWIDTH 14 0
BBX 11 14 1 1
BITMAP
0400
0E00
0E00
1B00
1B00
3180
3180
60C0
60C0
C060
C060
C060
FFE0
FFE0
ENDCHAR
STARTCHAR char225
ENCODING 1040
SWIDTH 500 0
DWIDTH 14 0
BBX 11 18 1 0
BITMAP
7FC0
FFE0
C060
C060
C060
C060
C060
C060
C060
FFE0
FFE0
C060
C060
C060
C060
C060
C060
C060
ENDCHAR
STARTCHAR char226
ENCODING 1041
SWIDTH 500 0
DWIDTH 14 0
BBX 11 18 1 0
BITMAP
7FE0
FFE0
C000
C000
C000
C000
C000
FFC0
FFE0
C060
C060
C060
C060
C060
C060
C060
FFE0
FFC0
ENDCHAR
STARTCHAR char247
ENCODING 1042
SWIDTH 500 0
DWIDTH 14 0
BBX 11 18 1 0
BITMAP
FFC0
FFE0
C060
C060
C060
C060
C0E0
FFC0
FFC0
C0E0
C060
C060
C060
C060
C060
C060
FFE0
FFC0
ENDCHAR
STARTCHAR char231
ENCODING 1043
SWIDTH 500 0
DWIDTH 14 0
BBX 11 18 1 0
BITMAP
FFE0
FFE0
C000
C000
C000
C000
C000
C000
C000
C000
C000
C000
C000
C000
C000
C000
C000
C000
ENDCHAR
STARTCHAR char228
ENCODING 1044
SWIDTH 500 0
DWIDTH 14 0
BBX 12 18 1 0
BITMAP
FFC0
FFE0
6070
6030
6030
6030
6030
6030
6030
6030
6030
6030
6030
6030
6030
6070
FFE0
FFC0
ENDCHAR
STARTCHAR char229
ENCODING 1045
SWIDTH 500 0
DWIDTH 14 0
BBX 11 18 1 0
BITMAP
7FE0
FFE0
C000
C000
C000
C000
C000
C000
FF00
FF00
C000
C000
C000
C000
C000
C000
FFE0
7FE0
ENDCHAR
STARTCHAR char246
ENCODING 1046
SWIDTH 500 0
DWIDTH 14 0
BBX 12 18 1 0
BITMAP
C630
C630
C630
C630
C630
E670
76E0
3FC0
1F80
3FC0
76E0
E670
C630
C630
C630
C630
C630
C630
ENDCHAR
STARTCHAR char250
ENCODING 1047
SWIDTH 500 0
DWIDTH 14 0
BBX 11 18 1 0
BITMAP
7FC0
FFE0
C060
C060
0060
0060
0060
0060
1FC0
1FC0
0060
0060
0060
0060
C060
C060
FFE0
7FC0
ENDCHAR
STARTCHAR char233
ENCODING 1048
SWIDTH 500 0
DWIDTH 14 0
BBX 11 18 1 0
BITMAP
C060
C060
C060
C060
C060
C0E0
C1E0
C3E0
C760
CE60
DC60
F860
F060
E060
C060
C060
C060
C060
ENDCHAR
STARTCHAR char234
ENCODING 1049
SWIDTH 500 0
DWIDTH 14 0
BBX 11 21 1 0
BITMAP
1F00
1F00
0000
C060
C060
C060
C060
C060
C0E0
C1E0
C3E0
C760
CE60
DC60
F860
F060
E060
C060
C060
C060
C060
ENDCHAR
STARTCHAR char235
ENCODING 1050
SWIDTH 500 0
DWIDTH 14 0
BBX 11 18 1 0
BITMAP
C060
C0E0
C1C0
C380
C700
CE00
DC00
F800
F000
F000
F800
DC00
CE00
C700
C380
C1C0
C0E0
C060
ENDCHAR
STARTCHAR char236
ENCODING 1051
SWIDTH 500 0
DWIDTH 14 0
BBX 10 18 2 0
BITMAP
FE00
FF00
C380
C1C0
C0C0
C0C0
C0C0
C0C0
C0C0
C0C0
C0C0
C0C0
C0C0
C0C0
C0C0
C0C0
C0C0
C0C0
ENDCHAR
STARTCHAR char237
ENCODING 1052
SWIDTH 500 0
DWIDTH 14 0
BBX 12 18 1 0
BITMAP
8010
C030
E070
F0F0
F9F0
DFB0
CF30
C630
C030
C030
C030
C030
C030
C030
C030
C030
C030
C030
ENDCHAR
STARTCHAR char238
ENCODING 1053
SWIDTH 500 0
DWIDTH 14 0
BBX 11 18 1 0
BITMAP
C060
C060
C060
C060
C060
C060
C060
C060
FFE0
FFE0
C060
C060
C060
C060
C060
C060
C060
C060
ENDCHAR
STARTCHAR char239
ENCODING 1054
SWIDTH 500 0
DWIDTH 14 0
BBX 11 18 1 0
BITMAP
7FC0
FFE0
C060
C060
C060
C060
C060
C060
C060
C060
C060
C060
C060
C060
C060
C060
FFE0
7FC0
ENDCHAR
STARTCHAR char240
ENCODING 1055
SWIDTH 500 0
DWIDTH 14 0
BBX 11 18 1 0
BITMAP
FFE0
FFE0
C060
C060
C060
C060
C060
C060
C060
C060
C060
C060
C060
C060
C060
C060
C060
C060
ENDCHAR
STARTCHAR char242
ENCODING 1056
SWIDTH 500 0
DWIDTH 14 0
BBX 11 18 1 0
BITMAP
7FC0
FFE0
C060
C060
C060
C060
C060
C060
FFE0
FFC0
C000
C000
C000
C000
C000
C000
C000
C000
ENDCHAR
STARTCHAR char243
ENCODING 1057
SWIDTH 500 0
DWIDTH 14 0
BBX 11 18 1 0
BITMAP
7FE0
FFE0
C000
C000
C000
C000
C000
C000
C000
C000
C000
C000
C000
C000
C000
C000
FFE0
7FE0
ENDCHAR
STARTCHAR char244
ENCODING 1058
SWIDTH 500 0
DWIDTH 14 0
BBX 12 18 1 0
BITMAP
FFF0
FFF0
0600
0600
0600
0600
0600
0600
0600
0600
0600
0600
0600
0600
0600
0600
0600
0600
ENDCHAR
STARTCHAR char245
ENCODING 1059
SWIDTH 500 0
DWIDTH 14 0
BBX 11 18 1 0
BITMAP
C060
C060
C060
C060
C060
C060
C060
C060
FFE0
7FE0
0060
0060
0060
0060
0060
0060
FFE0
FFC0
ENDCHAR
STARTCHAR char230
ENCODING 1060
SWIDTH 500 0
DWIDTH 14 0
BBX 12 22 1 -2
BITMAP
0600
0600
7FE0
FFF0
C630
C630
C630
C630
C630
C630
C630
C630
C630
C630
C630
C630
C630
C630
FFF0
7FE0
0600
0600
ENDCHAR
STARTCHAR char232
ENCODING 1061
SWIDTH 500 0
DWIDTH 14 0
BBX 11 18 1 0
BITMAP
C060
C060
60C0
60C0
3180
3180
1B00
1B00
0E00
0E00
1B00
1B00
3180
3180
60C0
60C0
C060
C060
ENDCHAR
STARTCHAR char227
ENCODING 1062
SWIDTH 500 0
DWIDTH 14 0
BBX 12 21 1 -3
BITMAP
C060
C060
C060
C060
C060
C060
C060
C060
C060
C060
C060
C060
C060
C060
C060
C060
FFF0
7FF0
0030
0030
0020
ENDCHAR
STARTCHAR char254
ENCODING 1063
SWIDTH 500 0
DWIDTH 14 0
BBX 11 18 1 0
BITMAP
C060
C060
C060
C060
C060
C060
C060
C060
FFE0
7FE0
0060
0060
0060
0060
0060
0060
0060
0060
ENDCHAR
STARTCHAR char251
ENCODING 1064
SWIDTH 500 0
DWIDTH 14 0
BBX 12 18 1 0
BITMAP
C630
C630
C630
C630
C630
C630
C630
C630
C630
C630
C630
C630
C630
C630
C630
C630
FFF0
7FF0
ENDCHAR
STARTCHAR char253
ENCODING 1065
SWIDTH 500 0
DWIDTH 14 0
BBX 13 21 1 -3
BITMAP
C630
C630
C630
C630
C630
C630
C630
C630
C630
C630
C630
C630
C630
C630
C630
C630
FFF0
7FF8
0018
0018
0010
ENDCHAR
STARTCHAR char249
ENCODING 1067
SWIDTH 500 0
DWIDTH 14 0
BBX 12 18 1 0
BITMAP
C030
C030
C030
C030
C030
C030
FF30
FFB0
C1B0
C1B0
C1B0
C1B0
C1B0
C1B0
C1B0
C1B0
FFB0
FF30
ENDCHAR
STARTCHAR char248
ENCODING 1068
SWIDTH 500 0
DWIDTH 14 0
BBX 11 18 1 0
BITMAP
C000
C000
C000
C000
C000
C000
FFC0
FFE0
C060
C060
C060
C060
C060
C060
C060
C060
FFE0
FFC0
ENDCHAR
STARTCHAR char252
ENCODING 1069
SWIDTH 500 0
DWIDTH 14 0
BBX 11 18 1 0
BITMAP
7FC0
FFE0
C060
C060
0060
0060
0060
0060
1FE0
1FE0
0060
0060
0060
0060
C060
C060
FFE0
7FC0
ENDCHAR
STARTCHAR char224
ENCODING 1070
SWIDTH 500 0
DWIDTH 14 0
BBX 12 18 1 0
BITMAP
C7E0
CFF0
CC30
CC30
CC30
CC30
CC30
CC30
FC30
FC30
CC30
CC30
CC30
CC30
CC30
CC30
CFF0
C7E0
ENDCHAR
STARTCHAR char241
ENCODING 1071
SWIDTH 500 0
DWIDTH 14 0
BBX 11 18 2 0
BITMAP
7FC0
FFE0
C060
C060
C060
C060
C060
C060
7FE0
3FE0
7060
E060
C060
C060
C060
C060
C060
C060
ENDCHAR
STARTCHAR char193
ENCODING 1072
SWIDTH 500 0
DWIDTH 14 0
BBX 11 13 1 0
BITMAP
FFC0
FFE0
0060
0060
7FE0
FFE0
C060
C060
C060
C060
C060
FFE0
7FC0
ENDCHAR
STARTCHAR char194
ENCODING 1073
SWIDTH 500 0
DWIDTH 14 0
BBX 11 13 2 0
BITMAP
7FE0
FFE0
C000
C000
FFC0
FFE0
C060
C060
C060
C060
C060
FFE0
7FC0
ENDCHAR
STARTCHAR char215
ENCODING 1074
SWIDTH 500 0
DWIDTH 14 0
BBX 11 13 1 0
BITMAP
FFC0
FFE0
C060
C060
C060
FFC0
FFC0
C060
C060
C060
C060
FFE0
FFC0
ENDCHAR
STARTCHAR char199
ENCODING 1075
SWIDTH 500 0
DWIDTH 14 0
BBX 10 13 2 0
BITMAP
FFC0
FFC0
C000
C000
C000
C000
C000
C000
C000
C000
C000
C000
C000
ENDCHAR
STARTCHAR char196
ENCODING 1076
SWIDTH 500 0
DWIDTH 14 0
BBX 12 15 1 -2
BITMAP
1F80
3FC0
30C0
30C0
30C0
30C0
30C0
30C0
30C0
30C0
30C0
FFF0
FFF0
C030
C030
ENDCHAR
STARTCHAR char197
ENCODING 1077
SWIDTH 500 0
DWIDTH 14 0
BBX 11 13 1 0
BITMAP
7FC0
FFE0
C060
C060
C060
C060
FFE0
FFE0
C000
C000
C000
FFE0
7FE0
ENDCHAR
STARTCHAR char214
ENCODING 1078
SWIDTH 500 0
DWIDTH 14 0
BBX 12 13 1 0
BITMAP
C630
C630
C630
E670
76E0
3FC0
1F80
3FC0
76E0
E670
C630
C630
C630
ENDCHAR
STARTCHAR char218
ENCODING 1079
SWIDTH 500 0
DWIDTH 14 0
BBX 11 13 1 0
BITMAP
7FC0
FFE0
C060
0060
0060
1FC0
1FC0
0060
0060
0060
C060
FFE0
7FC0
ENDCHAR
STARTCHAR char201
ENCODING 1080
SWIDTH 500 0
DWIDTH 14 0
BBX 10 13 2 0
BITMAP
C0C0
C0C0
C0C0
C1C0
C3C0
C7C0
CEC0
DCC0
F8C0
F0C0
E0C0
C0C0
C0C0
ENDCHAR
STARTCHAR char202
ENCODING 1081
SWIDTH 500 0
DWIDTH 14 0
BBX 10 16 2 0
BITMAP
1E00
1E00
0000
C0C0
C0C0
C0C0
C1C0
C3C0
C7C0
CEC0
DCC0
F8C0
F0C0
E0C0
C0C0
C0C0
ENDCHAR
STARTCHAR char203
ENCODING 1082
SWIDTH 500 0
DWIDTH 14 0
BBX 10 13 2 0
BITMAP
C1C0
C380
C700
CE00
DC00
F800
F000
F800
DC00
CE00
C700
C380
C1C0
ENDCHAR
STARTCHAR char204
ENCODING 1083
SWIDTH 500 0
DWIDTH 14 0
BBX 9 13 2 0
BITMAP
FC00
FE00
C700
C380
C180
C180
C180
C180
C180
C180
C180
C180
C180
ENDCHAR
STARTCHAR char205
ENCODING 1084
SWIDTH 500 0
DWIDTH 14 0
BBX 12 13 1 0
BITMAP
8010
C030
E070
F0F0
F9F0
DFB0
CF30
C630
C030
C030
C030
C030
C030
ENDCHAR
STARTCHAR char206
ENCODING 1085
SWIDTH 500 0
DWIDTH 14 0
BBX 11 13 1 0
BITMAP
C060
C060
C060
C060
C060
FFE0
FFE0
C060
C060
C060
C060
C060
C060
ENDCHAR
STARTCHAR char207
ENCODING 1086
SWIDTH 500 0
DWIDTH 14 0
BBX 11 13 1 0
BITMAP
7FC0
FFE0
C060
C060
C060
C060
C060
C060
C060
C060
C060
FFE0
7FC0
ENDCHAR
STARTCHAR char208
ENCODING 1087
SWIDTH 500 0
DWIDTH 14 0
BBX 11 13 1 0
BITMAP
FFE0
FFE0
C060
C060
C060
C060
C060
C060
C060
C060
C060
C060
C060
ENDCHAR
STARTCHAR char210
ENCODING 1088
SWIDTH 500 0
DWIDTH 14 0
BBX 11 13 1 0
BITMAP
FFC0
FFE0
C060
C060
C060
C060
FFE0
FFC0
C000
C000
C000
C000
C000
ENDCHAR
STARTCHAR char211
ENCODING 1089
SWIDTH 500 0
DWIDTH 14 0
BBX 10 13 1 0
BITMAP
7FC0
FFC0
C000
C000
C000
C000
C000
C000
C000
C000
C000
FFC0
7FC0
ENDCHAR
STARTCHAR char212
ENCODING 1090
SWIDTH 500 0
DWIDTH 14 0
BBX 12 13 1 0
BITMAP
FFF0
FFF0
0600
0600
0600
0600
0600
0600
0600
0600
0600
0600
0600
ENDCHAR
STARTCHAR char213
ENCODING 1091
SWIDTH 500 0
DWIDTH 14 0
BBX 11 13 1 0
BITMAP
C060
C060
C060
C060
C060
C060
FFE0
7FE0
0060
0060
0060
7FE0
7FC0
ENDCHAR
STARTCHAR char198
ENCODING 1092
SWIDTH 500 0
DWIDTH 14 0
BBX 12 17 1 -2
BITMAP
0600
0600
7FE0
FFF0
C630
C630
C630
C630
C630
C630
C630
C630
C630
FFF0
7FE0
0600
0600
ENDCHAR
STARTCHAR char200
ENCODING 1093
SWIDTH 500 0
DWIDTH 14 0
BBX 11 13 1 0
BITMAP
C060
C060
E0E0
71C0
3B80
1F00
0E00
1F00
3B80
71C0
E0E0
C060
C060
ENDCHAR
STARTCHAR char195
ENCODING 1094
SWIDTH 500 0
DWIDTH 14 0
BBX 12 16 1 -3
BITMAP
C060
C060
C060
C060
C060
C060
C060
C060
C060
C060
C060
FFE0
7FF0
0030
0030
0020
ENDCHAR
STARTCHAR char222
ENCODING 1095
SWIDTH 500 0
DWIDTH 14 0
BBX 11 13 1 0
BITMAP
C060
C060
C060
C060
C060
C060
FFE0
7FE0
0060
0060
0060
0060
0060
ENDCHAR
STARTCHAR char219
ENCODING 1096
SWIDTH 500 0
DWIDTH 14 0
BBX 12 13 1 0
BITMAP
C630
C630
C630
C630
C630
C630
C630
C630
C630
C630
C630
FFF0
7FF0
ENDCHAR
STARTCHAR char221
ENCODING 1097
SWIDTH 500 0
DWIDTH 14 0
BBX 13 15 1 -2
BITMAP
C630
C630
C630
C630
C630
C630
C630
C630
C630
C630
C630
FFF0
7FF8
0018
0010
ENDCHAR
STARTCHAR char223
ENCODING 1098
SWIDTH 500 0
DWIDTH 14 0
BBX 12 13 0 0
BITMAP
E000
F000
3000
3000
3FE0
3FF0
3030
3030
3030
3030
3030
3FF0
3FE0
ENDCHAR
STARTCHAR char217
ENCODING 1099
SWIDTH 500 0
DWIDTH 14 0
BBX 12 13 1 0
BITMAP
C030
C030
C030
C030
FF30
FFB0
C1B0
C1B0
C1B0
C1B0
C1B0
FFB0
FF30
ENDCHAR
STARTCHAR char216
ENCODING 1100
SWIDTH 500 0
DWIDTH 14 0
BBX 10 13 2 0
BITMAP
C000
C000
C000
C000
FF80
FFC0
C0C0
C0C0
C0C0
C0C0
C0C0
FFC0
FF80
ENDCHAR
STARTCHAR char220
ENCODING 1101
SWIDTH 500 0
DWIDTH 14 0
BBX 11 13 1 0
BITMAP
7FC0
FFE0
C060
0060
0060
1FE0
1FE0
0060
0060
0060
C060
FFE0
7FC0
ENDCHAR
STARTCHAR char192
ENCODING 1102
SWIDTH 500 0
DWIDTH 14 0
BBX 12 13 1 0
BITMAP
C7E0
CFF0
CC30
CC30
CC30
CC30
FC30
FC30
CC30
CC30
CC30
CFF0
C7E0
ENDCHAR
STARTCHAR char209
ENCODING 1103
SWIDTH 500 0
DWIDTH 14 0
BBX 11 13 1 0
BITMAP
7FE0
FFE0
C060
C060
C060
C060
FFE0
7FE0
0E60
1C60
3860
7060
E060
ENDCHAR
STARTCHAR char128
ENCODING -1
SWIDTH 500 0
DWIDTH 14 0
BBX 14 2 0 7
BITMAP
FFFC
FFFC
ENDCHAR
STARTCHAR char129
ENCODING -1
SWIDTH 500 0
DWIDTH 14 0
BBX 2 28 6 -6
BITMAP
C0
C0
C0
C0
C0
C0
C0
C0
C0
C0
C0
C0
C0
C0
C0
C0
C0
C0
C0
C0
C0
C0
C0
C0
C0
C0
C0
C0
ENDCHAR
STARTCHAR char130
ENCODING -1
SWIDTH 500 0
DWIDTH 14 0
BBX 8 15 6 -6
BITMAP
FF
FF
C0
C0
C0
C0
C0
C0
C0
C0
C0
C0
C0
C0
C0
ENDCHAR
STARTCHAR char131
ENCODING -1
SWIDTH 500 0
DWIDTH 14 0
BBX 8 15 0 -6
BITMAP
FF
FF
03
03
03
03
03
03
03
03
03
03
03
03
03
ENDCHAR
STARTCHAR char132
ENCODING -1
SWIDTH 500 0
DWIDTH 14 0
BBX 8 15 6 7
BITMAP
C0
C0
C0
C0
C0
C0
C0
C0
C0
C0
C0
C0
C0
FF
FF
ENDCHAR
STARTCHAR char133
ENCODING -1
SWIDTH 500 0
DWIDTH 14 0
BBX 8 15 0 7
BITMAP
03
03
03
03
03
03
03
03
03
03
03
03
03
FF
FF
ENDCHAR
STARTCHAR char134
ENCODING -1
SWIDTH 500 0
DWIDTH 14 0
BBX 8 28 6 -6
BITMAP
C0
C0
C0
C0
C0
C0
C0
C0
C0
C0
C0
C0
C0
FF
FF
C0
C0
C0
C0
C0
C0
C0
C0
C0
C0
C0
C0
C0
ENDCHAR
STARTCHAR char135
ENCODING -1
SWIDTH 500 0
DWIDTH 14 0
BBX 8 28 0 -6
BITMAP
03
03
03
03
03
03
03
03
03
03
03
03
03
FF
FF
03
03
03
03
03
03
03
03
03
03
03
03
03
ENDCHAR
STARTCHAR char136
ENCODING -1
SWIDTH 500 0
DWIDTH 14 0
BBX 14 15 0 -6
BITMAP
FFFC
FFFC
0300
0300
0300
0300
0300
0300
0300
0300
0300
0300
0300
0300
0300
ENDCHAR
STARTCHAR char137
ENCODING -1
SWIDTH 500 0
DWIDTH 14 0
BBX 14 15 0 7
BITMAP
0300
0300
0300
0300
0300
0300
0300
0300
0300
0300
0300
0300
0300
FFFC
FFFC
ENDCHAR
STARTCHAR char138
ENCODING -1
SWIDTH 500 0
DWIDTH 14 0
BBX 14 28 0 -6
BITMAP
0300
0300
0300
0300
0300
0300
0300
0300
0300
0300
0300
0300
0300
FFFC
FFFC
0300
0300
0300
0300
0300
0300
0300
0300
0300
0300
0300
0300
0300
ENDCHAR
STARTCHAR char139
ENCODING -1
SWIDTH 500 0
DWIDTH 14 0
BBX 14 14 0 8
BITMAP
FFFC
FFFC
FFFC
FFFC
FFFC
FFFC
FFFC
FFFC
FFFC
FFFC
FFFC
FFFC
FFFC
FFFC
ENDCHAR
STARTCHAR char140
ENCODING -1
SWIDTH 500 0
DWIDTH 14 0
BBX 14 14 0 -6
BITMAP
FFFC
FFFC
FFFC
FFFC
FFFC
FFFC
FFFC
FFFC
FFFC
FFFC
FFFC
FFFC
FFFC
FFFC
ENDCHAR
STARTCHAR char141
ENCODING -1
SWIDTH 500 0
DWIDTH 14 0
BBX 14 28 0 -6
BITMAP
FFFC
FFFC
FFFC
FFFC
FFFC
FFFC
FFFC
FFFC
FFFC
FFFC
FFFC
FFFC
FFFC
FFFC
FFFC
FFFC
FFFC
FFFC
FFFC
FFFC
FFFC
FFFC
FFFC
FFFC
FFFC
FFFC
FFFC
FFFC
ENDCHAR
STARTCHAR char142
ENCODING -1
SWIDTH 500 0
DWIDTH 14 0
BBX 7 28 0 -6
BITMAP
FE
FE
FE
FE
FE
FE
FE
FE
FE
FE
FE
FE
FE
FE
FE
FE
FE
FE
FE
FE
FE
FE
FE
FE
FE
FE
FE
FE
ENDCHAR
STARTCHAR char143
ENCODING -1
SWIDTH 500 0
DWIDTH 14 0
BBX 7 28 7 -6
BITMAP
FE
FE
FE
FE
FE
FE
FE
FE
FE
FE
FE
FE
FE
FE
FE
FE
FE
FE
FE
FE
FE
FE
FE
FE
FE
FE
FE
FE
ENDCHAR
STARTCHAR char144
ENCODING -1
SWIDTH 500 0
DWIDTH 14 0
BBX 13 27 0 -5
BITMAP
AAA8
0000
AAA8
0000
AAA8
0000
AAA8
0000
AAA8
0000
AAA8
0000
AAA8
0000
AAA8
0000
AAA8
0000
AAA8
0000
AAA8
0000
AAA8
0000
AAA8
0000
AAA8
ENDCHAR
STARTCHAR char145
ENCODING -1
SWIDTH 500 0
DWIDTH 14 0
BBX 14 28 0 -6
BITMAP
AAA8
5554
AAA8
5554
AAA8
5554
AAA8
5554
AAA8
5554
AAA8
5554
AAA8
5554
AAA8
5554
AAA8
5554
AAA8
5554
AAA8
5554
AAA8
5554
AAA8
5554
AAA8
5554
ENDCHAR
STARTCHAR char146
ENCODING -1
SWIDTH 500 0
DWIDTH 14 0
BBX 14 28 0 -6
BITMAP
FFFC
AAA8
FFFC
AAA8
FFFC
AAA8
FFFC
AAA8
FFFC
AAA8
FFFC
AAA8
FFFC
AAA8
FFFC
AAA8
FFFC
AAA8
FFFC
AAA8
FFFC
AAA8
FFFC
AAA8
FFFC
AAA8
FFFC
AAA8
ENDCHAR
STARTCHAR char147
ENCODING -1
SWIDTH 500 0
DWIDTH 14 0
BBX 7 24 6 -6
BITMAP
7C
FE
C6
C6
C0
C0
C0
C0
C0
C0
C0
C0
C0
C0
C0
C0
C0
C0
C0
C0
C0
C0
C0
C0
ENDCHAR
STARTCHAR char148
ENCODING -1
SWIDTH 500 0
DWIDTH 14 0
BBX 9 12 2 2
BITMAP
FF80
FF80
FF80
FF80
FF80
FF80
FF80
FF80
FF80
FF80
FF80
FF80
ENDCHAR
STARTCHAR char149
ENCODING -1
SWIDTH 500 0
DWIDTH 14 0
BBX 6 6 4 5
BITMAP
78
FC
FC
FC
FC
78
ENDCHAR
STARTCHAR char150
ENCODING -1
SWIDTH 500 0
DWIDTH 14 0
BBX 12 20 1 0
BITMAP
00F0
00F0
00C0
00C0
00C0
00C0
00C0
00C0
00C0
00C0
C0C0
C0C0
C0C0
E0C0
70C0
38C0
1CC0
0EC0
07C0
03C0
ENDCHAR
STARTCHAR char151
ENCODING -1
SWIDTH 500 0
DWIDTH 14 0
BBX 12 9 1 4
BITMAP
7C30
FFF0
C3E0
0000
0000
0000
7C30
FFF0
C3E0
ENDCHAR
STARTCHAR char152
ENCODING -1
SWIDTH 500 0
DWIDTH 14 0
BBX 11 18 1 0
BITMAP
00E0
01C0
0380
0700
0E00
1C00
3800
7000
3800
1C00
0E00
0700
0380
01C0
00E0
0000
FFE0
FFE0
ENDCHAR
STARTCHAR char153
ENCODING -1
SWIDTH 500 0
DWIDTH 14 0
BBX 11 18 1 0
BITMAP
E000
7000
3800
1C00
0E00
0700
0380
01C0
0380
0700
0E00
1C00
3800
7000
E000
0000
FFE0
FFE0
ENDCHAR
STARTCHAR char154
ENCODING -1
SWIDTH 500 0
DWIDTH 14 0
BBX 1 1 13 -6
BITMAP
00
ENDCHAR
STARTCHAR char155
ENCODING -1
SWIDTH 500 0
DWIDTH 14 0
BBX 7 22 1 0
BITMAP
06
06
06
06
06
06
06
06
06
06
06
06
06
06
06
06
06
06
C6
C6
FE
7C
ENDCHAR
STARTCHAR char156
ENCODING -1
SWIDTH 500 0
DWIDTH 14 0
BBX 7 7 3 13
BITMAP
7C
FE
C6
C6
C6
FE
7C
ENDCHAR
STARTCHAR char157
ENCODING -1
SWIDTH 500 0
DWIDTH 14 0
BBX 7 8 3 12
BITMAP
7C
FE
C6
0C
18
30
7E
FE
ENDCHAR
STARTCHAR char158
ENCODING -1
SWIDTH 500 0
DWIDTH 14 0
BBX 2 4 6 6
BITMAP
C0
C0
C0
C0
ENDCHAR
STARTCHAR char159
ENCODING -1
SWIDTH 500 0
DWIDTH 14 0
BBX 12 14 1 2
BITMAP
0600
0600
0600
0600
0000
0000
FFF0
FFF0
0000
0000
0600
0600
0600
0600
ENDCHAR
STARTCHAR char160
ENCODING -1
SWIDTH 500 0
DWIDTH 14 0
BBX 14 6 0 5
BITMAP
FFFC
FFFC
0000
0000
FFFC
FFFC
ENDCHAR
STARTCHAR char161
ENCODING -1
SWIDTH 500 0
DWIDTH 14 0
BBX 6 28 4 -6
BITMAP
CC
CC
CC
CC
CC
CC
CC
CC
CC
CC
CC
CC
CC
CC
CC
CC
CC
CC
CC
CC
CC
CC
CC
CC
CC
CC
CC
CC
ENDCHAR
STARTCHAR char162
ENCODING -1
SWIDTH 500 0
DWIDTH 14 0
BBX 8 17 6 -6
BITMAP
FF
FF
C0
C0
FF
FF
C0
C0
C0
C0
C0
C0
C0
C0
C0
C0
C0
ENDCHAR
STARTCHAR char163
ENCODING -1
SWIDTH 500 0
DWIDTH 14 0
BBX 11 16 1 0
BITMAP
3180
3180
0000
7FC0
FFE0
C060
C060
C060
C060
FFE0
FFE0
C000
C000
C000
FFE0
7FE0
ENDCHAR
STARTCHAR char164
ENCODING -1
SWIDTH 500 0
DWIDTH 14 0
BBX 10 15 4 -6
BITMAP
FFC0
FFC0
CC00
CC00
CC00
CC00
CC00
CC00
CC00
CC00
CC00
CC00
CC00
CC00
CC00
ENDCHAR
STARTCHAR char165
ENCODING -1
SWIDTH 500 0
DWIDTH 14 0
BBX 10 17 4 -6
BITMAP
FFC0
FFC0
C000
C000
CFC0
CFC0
CC00
CC00
CC00
CC00
CC00
CC00
CC00
CC00
CC00
CC00
CC00
ENDCHAR
STARTCHAR char166
ENCODING -1
SWIDTH 500 0
DWIDTH 14 0
BBX 8 17 0 -6
BITMAP
FF
FF
03
03
FF
FF
03
03
03
03
03
03
03
03
03
03
03
ENDCHAR
STARTCHAR char167
ENCODING -1
SWIDTH 500 0
DWIDTH 14 0
BBX 10 15 0 -6
BITMAP
FFC0
FFC0
0CC0
0CC0
0CC0
0CC0
0CC0
0CC0
0CC0
0CC0
0CC0
0CC0
0CC0
0CC0
0CC0
ENDCHAR
STARTCHAR char168
ENCODING -1
SWIDTH 500 0
DWIDTH 14 0
BBX 10 17 0 -6
BITMAP
FFC0
FFC0
00C0
00C0
FCC0
FCC0
0CC0
0CC0
0CC0
0CC0
0CC0
0CC0
0CC0
0CC0
0CC0
0CC0
0CC0
ENDCHAR
STARTCHAR char169
ENCODING -1
SWIDTH 500 0
DWIDTH 14 0
BBX 8 17 6 5
BITMAP
C0
C0
C0
C0
C0
C0
C0
C0
C0
C0
C0
FF
FF
C0
C0
FF
FF
ENDCHAR
STARTCHAR char170
ENCODING -1
SWIDTH 500 0
DWIDTH 14 0
BBX 10 15 4 7
BITMAP
CC00
CC00
CC00
CC00
CC00
CC00
CC00
CC00
CC00
CC00
CC00
CC00
CC00
FFC0
FFC0
ENDCHAR
STARTCHAR char171
ENCODING -1
SWIDTH 500 0
DWIDTH 14 0
BBX 10 17 4 5
BITMAP
CC00
CC00
CC00
CC00
CC00
CC00
CC00
CC00
CC00
CC00
CC00
CFC0
CFC0
C000
C000
FFC0
FFC0
ENDCHAR
STARTCHAR char172
ENCODING -1
SWIDTH 500 0
DWIDTH 14 0
BBX 8 17 0 5
BITMAP
03
03
03
03
03
03
03
03
03
03
03
FF
FF
03
03
FF
FF
ENDCHAR
STARTCHAR char173
ENCODING -1
SWIDTH 500 0
DWIDTH 14 0
BBX 10 15 0 7
BITMAP
0CC0
0CC0
0CC0
0CC0
0CC0
0CC0
0CC0
0CC0
0CC0
0CC0
0CC0
0CC0
0CC0
FFC0
FFC0
ENDCHAR
STARTCHAR char174
ENCODING -1
SWIDTH 500 0
DWIDTH 14 0
BBX 10 17 0 5
BITMAP
0CC0
0CC0
0CC0
0CC0
0CC0
0CC0
0CC0
0CC0
0CC0
0CC0
0CC0
FCC0
FCC0
00C0
00C0
FFC0
FFC0
ENDCHAR
STARTCHAR char175
ENCODING -1
SWIDTH 500 0
DWIDTH 14 0
BBX 8 28 6 -6
BITMAP
C0
C0
C0
C0
C0
C0
C0
C0
C0
C0
C0
FF
FF
C0
C0
FF
FF
C0
C0
C0
C0
C0
C0
C0
C0
C0
C0
C0
ENDCHAR
STARTCHAR char176
ENCODING -1
SWIDTH 500 0
DWIDTH 14 0
BBX 7 7 3 13
BITMAP
7C
FE
C6
C6
C6
FE
7C
ENDCHAR
STARTCHAR char177
ENCODING -1
SWIDTH 500 0
DWIDTH 14 0
BBX 10 28 4 -6
BITMAP
CC00
CC00
CC00
CC00
CC00
CC00
CC00
CC00
CC00
CC00
CC00
CFC0
CFC0
C000
C000
CFC0
CFC0
CC00
CC00
CC00
CC00
CC00
CC00
CC00
CC00
CC00
CC00
CC00
ENDCHAR
STARTCHAR char178
ENCODING -1
SWIDTH 500 0
DWIDTH 14 0
BBX 8 28 0 -6
BITMAP
03
03
03
03
03
03
03
03
03
03
03
FF
FF
03
03
FF
FF
03
03
03
03
03
03
03
03
03
03
03
ENDCHAR
STARTCHAR char179
ENCODING -1
SWIDTH 500 0
DWIDTH 14 0
BBX 11 22 1 0
BITMAP
3180
3180
3180
0000
7FE0
FFE0
C000
C000
C000
C000
C000
C000
FF00
FF00
C000
C000
C000
C000
C000
C000
FFE0
7FE0
ENDCHAR
STARTCHAR char180
ENCODING -1
SWIDTH 500 0
DWIDTH 14 0
BBX 10 28 0 -6
BITMAP
0CC0
0CC0
0CC0
0CC0
0CC0
0CC0
0CC0
0CC0
0CC0
0CC0
0CC0
0CC0
0CC0
FCC0
FCC0
0CC0
0CC0
0CC0
0CC0
0CC0
0CC0
0CC0
0CC0
0CC0
0CC0
0CC0
0CC0
0CC0
ENDCHAR
STARTCHAR char181
ENCODING -1
SWIDTH 500 0
DWIDTH 14 0
BBX 10 28 0 -6
BITMAP
0CC0
0CC0
0CC0
0CC0
0CC0
0CC0
0CC0
0CC0
0CC0
0CC0
0CC0
FCC0
FCC0
00C0
00C0
FCC0
FCC0
0CC0
0CC0
0CC0
0CC0
0CC0
0CC0
0CC0
0CC0
0CC0
0CC0
0CC0
ENDCHAR
STARTCHAR char182
ENCODING -1
SWIDTH 500 0
DWIDTH 14 0
BBX 14 17 0 -6
BITMAP
FFFC
FFFC
0000
0000
FFFC
FFFC
0300
0300
0300
0300
0300
0300
0300
0300
0300
0300
0300
ENDCHAR
STARTCHAR char183
ENCODING -1
SWIDTH 500 0
DWIDTH 14 0
BBX 14 15 0 -6
BITMAP
FFFC
FFFC
0CC0
0CC0
0CC0
0CC0
0CC0
0CC0
0CC0
0CC0
0CC0
0CC0
0CC0
0CC0
0CC0
ENDCHAR
STARTCHAR char184
ENCODING -1
SWIDTH 500 0
DWIDTH 14 0
BBX 14 17 0 -6
BITMAP
FFFC
FFFC
0000
0000
FCFC
FCFC
0CC0
0CC0
0CC0
0CC0
0CC0
0CC0
0CC0
0CC0
0CC0
0CC0
0CC0
ENDCHAR
STARTCHAR char185
ENCODING -1
SWIDTH 500 0
DWIDTH 14 0
BBX 14 17 0 5
BITMAP
0300
0300
0300
0300
0300
0300
0300
0300
0300
0300
0300
FFFC
FFFC
0000
0000
FFFC
FFFC
ENDCHAR
STARTCHAR char186
ENCODING -1
SWIDTH 500 0
DWIDTH 14 0
BBX 14 15 0 7
BITMAP
0CC0
0CC0
0CC0
0CC0
0CC0
0CC0
0CC0
0CC0
0CC0
0CC0
0CC0
0CC0
0CC0
FFFC
FFFC
ENDCHAR
STARTCHAR char187
ENCODING -1
SWIDTH 500 0
DWIDTH 14 0
BBX 14 17 0 5
BITMAP
0CC0
0CC0
0CC0
0CC0
0CC0
0CC0
0CC0
0CC0
0CC0
0CC0
0CC0
FCFC
FCFC
0000
0000
FFFC
FFFC
ENDCHAR
STARTCHAR char188
ENCODING -1
SWIDTH 500 0
DWIDTH 14 0
BBX 14 28 0 -6
BITMAP
0300
0300
0300
0300
0300
0300
0300
0300
0300
0300
0300
FFFC
FFFC
0000
0000
FFFC
FFFC
0300
0300
0300
0300
0300
0300
0300
0300
0300
0300
0300
ENDCHAR
STARTCHAR char189
ENCODING -1
SWIDTH 500 0
DWIDTH 14 0
BBX 14 28 0 -6
BITMAP
0CC0
0CC0
0CC0
0CC0
0CC0
0CC0
0CC0
0CC0
0CC0
0CC0
0CC0
0CC0
0CC0
FCFC
FCFC
0CC0
0CC0
0CC0
0CC0
0CC0
0CC0
0CC0
0CC0
0CC0
0CC0
0CC0
0CC0
0CC0
ENDCHAR
STARTCHAR char190
ENCODING -1
SWIDTH 500 0
DWIDTH 14 0
BBX 14 28 0 -6
BITMAP
0CC0
0CC0
0CC0
0CC0
0CC0
0CC0
0CC0
0CC0
0CC0
0CC0
0CC0
FCFC
FCFC
0000
0000
FCFC
FCFC
0CC0
0CC0
0CC0
0CC0
0CC0
0CC0
0CC0
0CC0
0CC0
0CC0
0CC0
ENDCHAR
STARTCHAR char191
ENCODING -1
SWIDTH 500 0
DWIDTH 14 0
BBX 13 14 0 0
BITMAP
3FE0
7FF0
C018
CF98
DFD8
D8D8
C0D8
C0D8
D8D8
DFD8
CF98
C018
7FF0
3FE0
ENDCHAR
STARTCHAR char255
ENCODING -1
SWIDTH 500 0
DWIDTH 14 0
BBX 13 18 0 0
BITMAP
F000
F000
3000
3000
3000
3000
3FF0
3FF8
3018
3018
3018
3018
3018
3018
3018
3018
3FF8
3FF0
ENDCHAR
ENDFONT
